<svg width="200" height="200" viewBox="0 0 200 200" fill="none" xmlns="http://www.w3.org/2000/svg">
<path d="M200 100L135.289 114.617L170.711 170.711L114.617 135.289L100 200L85.3828 135.289L29.2893 170.711L64.7109 114.617L0 100L64.7109 85.3828L29.2893 29.2893L85.3828 64.7109L100 0L114.617 64.7109L170.711 29.2893L135.289 85.3828L200 100Z" fill="#03D631"/>
<path d="M100 5L122.451 74.0983H195.106L136.327 116.803L158.779 185.902L100 143.197L41.2215 185.902L63.6729 116.803L4.89435 74.0983H77.5486L100 5Z" fill="#03D631"/>
<circle cx="99" cy="100" r="50" fill="#E5E5E5"/>
<circle cx="100" cy="100" r="25" fill="#F013F4" fill-opacity="0.85"/>
</svg>
